<svg width="419" height="660" viewBox="0 0 419 660" fill="none" xmlns="http://www.w3.org/2000/svg">
<path d="M398 356L410.5 349L411.931 532.186C411.977 538.006 410.886 543.779 408.719 549.181V549.181C387.217 602.798 336.715 639.201 279.051 642.651L267.572 643.338C260.213 643.778 252.828 643.405 245.55 642.227L204 635.5L317.5 614.5L394.5 535.5L398 356Z" fill="url(#paint0_linear_1_66)"/>
<path d="M82 165.5L197.725 185.16C206.832 186.707 216.145 186.581 225.207 184.788L353 159.5V159.5C377.01 170.725 393.704 193.343 397.357 219.595L399.5 235V504.637C399.5 525.78 393.516 546.491 382.241 564.377L375.897 574.439C372.32 580.113 367.894 585.204 362.772 589.534V589.534C327.992 618.942 284.133 635.452 238.595 636.28L226.5 636.5L191.205 635.854C160.225 635.288 129.483 630.327 99.8975 621.12L97.0696 620.24C53.3804 606.643 23.1958 566.74 22 521V521L25.3998 251.443C25.4665 246.157 25.9678 240.885 26.8986 235.68L27.9784 229.643C33.2526 200.156 53.8389 175.712 82 165.5V165.5Z" fill="url(#paint1_radial_1_66)"/>
<path d="M347 157V157C374.009 165.594 393.931 188.588 398.591 216.545L400.5 228L400 358.5V358.5C397.779 361.356 394.42 363.099 390.806 363.271L389.106 363.352C387.415 363.433 386 362.083 386 360.391V349L385.067 245.453C385.023 240.502 384.387 235.574 383.174 230.773V230.773C376.931 206.061 357.349 186.943 332.494 181.294L307 175.5L347 157Z" fill="url(#paint2_linear_1_66)"/>
<path d="M377 112.5V112.5C354.17 138.224 322.512 154.438 288.295 157.929L219 165L162.5 163L125.422 156.82C116.154 155.276 107.013 153.042 98.0766 150.137L92.2222 148.235C78.5809 143.801 66.1064 136.367 55.7156 126.479L40.5 112" stroke="url(#paint3_linear_1_66)" stroke-width="12"/>
<path d="M383.5 116.5C383.5 122.633 380.302 129.544 372.192 136.91C364.081 144.278 351.813 151.349 335.847 157.483C303.98 169.726 259.312 177.5 209.5 177.5C159.688 177.5 115.02 169.726 83.153 157.483C67.1874 151.349 54.9194 144.278 46.8078 136.91C38.6985 129.544 35.5 122.633 35.5 116.5C35.5 110.367 38.6985 103.456 46.8078 96.0903C54.9194 88.7222 67.1874 81.6509 83.153 75.517C115.02 63.2736 159.688 55.5 209.5 55.5C259.312 55.5 303.98 63.2736 335.847 75.517C351.813 81.6509 364.081 88.7222 372.192 96.0903C380.302 103.456 383.5 110.367 383.5 116.5Z" stroke="#232788" stroke-width="19"/>
<path d="M372.5 65C372.5 71.4982 369.08 78.4293 361.282 85.4791C353.483 92.5287 341.834 99.1754 326.887 104.891C297.036 116.304 255.359 123.5 209 123.5C162.641 123.5 120.964 116.304 91.1132 104.891C76.1657 99.1754 64.5167 92.5287 56.7183 85.4791C48.9197 78.4293 45.5 71.4982 45.5 65C45.5 58.5018 48.9197 51.5707 56.7183 44.5209C64.5167 37.4713 76.1657 30.8246 91.1132 25.1094C120.964 13.6959 162.641 6.5 209 6.5C255.359 6.5 297.036 13.6959 326.887 25.1094C341.834 30.8246 353.483 37.4713 361.282 44.5209C369.08 51.5707 372.5 58.5018 372.5 65Z" stroke="#232788" stroke-width="13"/>
<path d="M39 66L42.5 76L47 84.5L39 91V66Z" fill="#232788"/>
<path d="M379 66L375.5 76L371 84.5L379 91V66Z" fill="#232788"/>
<path d="M52.5 97.9999V97.9999C62.5156 112.539 77.309 123.108 94.3089 127.872L103.45 130.433C148.429 143.036 195.35 147.219 241.85 142.771L266.165 140.445C279.692 139.151 293.07 136.601 306.124 132.827L322.116 128.205C340.112 123.003 354.892 110.118 362.5 93V93" stroke="#232788" stroke-width="32"/>
<path d="M39.0205 134L35.893 137.732C16.2702 161.148 5.59487 190.768 5.76771 221.318L7.49995 527.5L7.49995 526V526C12.57 580.28 51.9696 625.144 105.14 637.183L119.648 640.467C173.677 652.7 229.599 654.073 284.163 644.506L305.346 640.791C353.801 632.295 393.695 597.914 409.252 551.244V551.244C412.396 541.811 413.986 531.929 413.959 521.986L413.126 213.675C413.046 183.879 400.712 155.428 379.021 135V135" stroke="#232788" stroke-width="10"/>
<ellipse cx="209" cy="65" rx="157" ry="54" fill="url(#paint4_linear_1_66)"/>
<path d="M53 87L63.3351 94.1713C72.7332 100.692 82.9884 105.882 93.809 109.592L112.5 116V116C104.847 114.669 97.3224 112.687 90.0074 110.074L80 106.5L66.3606 99.3703C60.8861 96.5086 56.274 92.2384 53 87V87Z" fill="url(#paint5_linear_1_66)"/>
<path d="M34.5 310L34.5 475" stroke="#FCFCFB" stroke-width="15" stroke-linecap="round"/>
<path d="M35.5464 240.79L40.2611 225.367C43.04 216.276 48.1165 208.056 55 201.5V201.5" stroke="#FCFCFB" stroke-width="10" stroke-linecap="round"/>
<ellipse cx="88.5" cy="235.5" rx="11.5" ry="10.5" fill="#FCFCFB"/>
<circle cx="97.5" cy="216.5" r="5.5" fill="#FCFCFB"/>
<ellipse cx="77" cy="216.5" rx="5" ry="4.5" fill="#FCFCFB"/>
<ellipse cx="337.077" cy="230.809" rx="2.5" ry="2" transform="rotate(22.655 337.077 230.809)" fill="#FCFCFB"/>
<path d="M43.6979 552.114V552.114C47.1915 560.605 52.4752 568.242 59.1886 574.506L61.1136 576.302" stroke="#FCFCFB" stroke-width="8" stroke-linecap="round"/>
<path d="M80.2004 589.542L88.9801 594.856C92.9765 597.275 97.2698 599.165 101.753 600.479L112.2 603.542" stroke="#FCFCFB" stroke-width="8" stroke-linecap="round"/>
<path d="M133.5 608V608C136.436 609.631 139.784 610.371 143.134 610.13L144.5 610.031" stroke="#FCFCFB" stroke-width="7" stroke-linecap="round"/>
<path d="M277 609.5L279.06 609.042C280.668 608.685 282.182 607.989 283.5 607V607" stroke="#F05181" stroke-width="9" stroke-linecap="round"/>
<path d="M254 611.5L262.153 611.5C265.709 611.5 269.256 611.149 272.743 610.451L277.5 609.5" stroke="#FCFCFB" stroke-width="9" stroke-linecap="round"/>
<path d="M343.5 582.5V582.5C346.078 578.633 349.977 575.839 354.468 574.642L355 574.5" stroke="#F05181" stroke-width="7" stroke-linecap="round"/>
<path d="M332 592.5V592.5C332.651 590.872 333.781 589.479 335.24 588.506L336 588" stroke="#F05181" stroke-width="7" stroke-linecap="round"/>
<ellipse cx="121" cy="610.5" rx="4" ry="2.5" fill="#F08DC2"/>
<path d="M383 349.96L384 448.96" stroke="#F05181" stroke-width="6" stroke-linecap="round"/>
<path d="M69.5 289.943C69.5 285.728 73.1984 282.469 77.3803 282.999L115.801 287.869C179.346 295.924 243.654 295.924 307.199 287.869L348.997 282.571C351.387 282.268 353.5 284.13 353.5 286.539V552.935C353.5 556.862 350.651 560.208 346.774 560.833L319.454 565.241C238.466 578.309 155.798 576.84 75.3253 560.902V560.902C71.9396 560.231 69.5 557.261 69.5 553.81V289.943Z" fill="#FCFCFA"/>
<path d="M180.518 507.381C174.512 496.993 182.009 484 194.008 484H202.989C206.644 484 210.28 484.527 213.784 485.566L214.775 485.859C219.557 487.276 224.063 489.496 228.101 492.423L242 502.5V502.5C255.354 512.039 251.073 532.891 235.042 536.398L232.987 536.847C230.169 537.464 227.243 537.396 224.456 536.649L222.355 536.086C208.715 532.433 196.342 525.098 186.59 514.885L184.514 512.712C182.975 511.1 181.634 509.31 180.518 507.381V507.381Z" fill="url(#paint6_radial_1_66)"/>
<ellipse cx="224.926" cy="503.349" rx="3.06393" ry="3.08731" transform="rotate(-43.8078 224.926 503.349)" fill="url(#paint7_radial_1_66)"/>
<path d="M198.141 487.5C198.283 487.5 198.362 487.666 198.271 487.775L197.232 489.022C196.433 489.98 195.339 490.647 194.122 490.917V490.917C192.463 491.286 191.059 492.382 190.299 493.902L189.194 496.111C188.734 497.032 188.144 497.883 187.444 498.638L186.676 499.464C185.525 500.704 183.489 499.538 183.975 497.917V497.917C184.637 495.709 186.05 493.8 187.969 492.521L189.5 491.5L190.916 490.241C192.903 488.475 195.483 487.5 198.141 487.5V487.5Z" fill="url(#paint8_radial_1_66)"/>
<path d="M193.436 504.564C193.788 504.212 194.293 504.059 194.782 504.156L195.409 504.282C196.108 504.422 196.722 504.833 197.117 505.426L197.244 505.616C197.413 505.869 197.631 506.087 197.884 506.256V506.256C198.574 506.716 199.458 506.771 200.199 506.4L200.658 506.171C200.883 506.058 201.131 506 201.382 506H201.987C202.546 506 203 506.454 203 507.013V507.013C203 507.321 202.86 507.612 202.62 507.804L201.34 508.828C200.788 509.269 200.138 509.572 199.445 509.711L198.887 509.823C198.3 509.94 197.693 509.949 197.104 509.851V509.851C195.768 509.628 194.574 508.861 193.823 507.734L193.351 507.027C193.122 506.683 193 506.28 193 505.867V505.617C193 505.222 193.157 504.843 193.436 504.564V504.564Z" fill="url(#paint9_radial_1_66)"/>
<path d="M234.726 522.387C235.225 522.137 235.806 522.077 236.348 522.212V522.212C237.064 522.391 237.662 522.906 237.937 523.592L238.229 524.322C238.393 524.733 238.297 525.203 237.984 525.516L237.907 525.593C237.658 525.842 237.289 525.93 236.954 525.818V525.818C236.439 525.646 235.888 525.949 235.756 526.476L235.679 526.786C235.569 527.225 235.225 527.569 234.786 527.679L234.644 527.714C233.976 527.881 233.281 527.561 232.973 526.945L232.841 526.681C232.622 526.245 232.587 525.74 232.741 525.278L233.127 524.121C233.366 523.403 233.88 522.81 234.557 522.472L234.726 522.387Z" fill="url(#paint10_radial_1_66)"/>
<circle cx="270.5" cy="505.5" r="8.5" fill="#DC2391"/>
<ellipse cx="297" cy="502.5" rx="8" ry="7.5" transform="rotate(-27.314 297 502.5)" fill="#2422A3"/>
<circle cx="322" cy="499" r="8" transform="rotate(7.45504 322 499)" fill="#25278A"/>
<circle cx="153" cy="505" r="9" fill="#762ABF"/>
<ellipse cx="125.916" cy="501.991" rx="8.5" ry="7" transform="rotate(47.0195 125.916 501.991)" fill="#2D2794"/>
<ellipse cx="99.8985" cy="499.299" rx="8.67156" ry="7.56291" transform="rotate(59.7991 99.8985 499.299)" fill="#272483"/>
<path d="M175.873 341.04H179.305V343.944C179.305 344.888 179.121 345.688 178.753 346.344C178.385 347 177.865 347.496 177.193 347.832C176.521 348.168 175.721 348.336 174.793 348.336C173.929 348.336 173.225 348.2 172.681 347.928C172.137 347.64 171.865 347.168 171.865 346.512C171.865 346.224 171.913 345.976 172.009 345.768C172.105 345.56 172.209 345.392 172.321 345.264C172.593 345.344 172.857 345.408 173.113 345.456C173.385 345.504 173.665 345.528 173.953 345.528C174.609 345.528 175.089 345.368 175.393 345.048C175.713 344.712 175.873 344.208 175.873 343.536V341.04ZM179.305 342.456H175.873V333.432C176.017 333.4 176.241 333.36 176.545 333.312C176.849 333.248 177.153 333.216 177.457 333.216C178.097 333.216 178.561 333.336 178.849 333.576C179.153 333.8 179.305 334.224 179.305 334.848V342.456ZM187.329 338.016H190.689V347.832C190.545 347.88 190.329 347.928 190.041 347.976C189.769 348.024 189.473 348.048 189.153 348.048C188.593 348.048 188.145 347.88 187.809 347.544C187.489 347.208 187.329 346.768 187.329 346.224V338.016ZM190.689 343.416H187.329V335.28C187.329 334.704 187.489 334.256 187.809 333.936C188.145 333.6 188.593 333.432 189.153 333.432C189.473 333.432 189.769 333.456 190.041 333.504C190.329 333.552 190.545 333.6 190.689 333.648V343.416ZM189.153 341.928V339.216H196.401C196.497 339.36 196.577 339.544 196.641 339.768C196.721 339.992 196.761 340.248 196.761 340.536C196.761 341 196.657 341.352 196.449 341.592C196.241 341.816 195.945 341.928 195.561 341.928H189.153ZM189.153 348.048V345.312H197.217C197.297 345.44 197.369 345.624 197.433 345.864C197.513 346.104 197.553 346.368 197.553 346.656C197.553 347.12 197.449 347.472 197.241 347.712C197.033 347.936 196.737 348.048 196.353 348.048H189.153ZM189.153 336.168V333.432H197.097C197.193 333.576 197.273 333.76 197.337 333.984C197.417 334.208 197.457 334.464 197.457 334.752C197.457 335.232 197.353 335.592 197.145 335.832C196.937 336.056 196.641 336.168 196.257 336.168H189.153ZM204.897 338.112H208.353V347.832L206.721 348.048C206.177 348.048 205.737 347.88 205.401 347.544C205.065 347.208 204.897 346.768 204.897 346.224V338.112ZM206.721 348.048V345.24H214.305C214.417 345.384 214.513 345.576 214.593 345.816C214.673 346.056 214.713 346.312 214.713 346.584C214.713 347.064 214.601 347.432 214.377 347.688C214.153 347.928 213.857 348.048 213.489 348.048H206.721ZM208.353 342.24H204.897V333.432C205.057 333.4 205.289 333.36 205.593 333.312C205.897 333.248 206.201 333.216 206.505 333.216C207.145 333.216 207.609 333.336 207.897 333.576C208.201 333.8 208.353 334.224 208.353 334.848V342.24ZM221.667 338.112H225.123V347.832L223.491 348.048C222.947 348.048 222.507 347.88 222.171 347.544C221.835 347.208 221.667 346.768 221.667 346.224V338.112ZM223.491 348.048V345.24H231.075C231.187 345.384 231.283 345.576 231.363 345.816C231.443 346.056 231.483 346.312 231.483 346.584C231.483 347.064 231.371 347.432 231.147 347.688C230.923 347.928 230.627 348.048 230.259 348.048H223.491ZM225.123 342.24H221.667V333.432C221.827 333.4 222.059 333.36 222.363 333.312C222.667 333.248 222.971 333.216 223.275 333.216C223.915 333.216 224.379 333.336 224.667 333.576C224.971 333.8 225.123 334.224 225.123 334.848V342.24ZM243.613 343.248H240.541C240.125 342.624 239.669 341.928 239.173 341.16C238.677 340.392 238.189 339.608 237.709 338.808C237.229 337.992 236.773 337.208 236.341 336.456C235.925 335.688 235.581 334.992 235.309 334.368C235.469 334.112 235.701 333.88 236.005 333.672C236.309 333.448 236.677 333.336 237.109 333.336C237.637 333.336 238.053 333.448 238.357 333.672C238.677 333.896 238.981 334.296 239.269 334.872C239.349 335 239.477 335.24 239.653 335.592C239.845 335.928 240.053 336.32 240.277 336.768C240.517 337.216 240.757 337.664 240.997 338.112C241.237 338.56 241.445 338.952 241.621 339.288C241.797 339.624 241.917 339.848 241.981 339.96H242.125C242.509 339.192 242.853 338.488 243.157 337.848C243.477 337.192 243.781 336.528 244.069 335.856C244.373 335.184 244.701 334.464 245.053 333.696C245.277 333.584 245.525 333.496 245.797 333.432C246.085 333.368 246.349 333.336 246.589 333.336C247.069 333.336 247.461 333.464 247.765 333.72C248.085 333.96 248.245 334.32 248.245 334.8C248.245 334.976 248.165 335.264 248.005 335.664C247.845 336.048 247.581 336.576 247.213 337.248C246.861 337.904 246.389 338.728 245.797 339.72C245.205 340.696 244.477 341.872 243.613 343.248ZM240.373 341.976H243.733V347.976C243.589 348.008 243.365 348.048 243.061 348.096C242.773 348.144 242.485 348.168 242.197 348.168C241.525 348.168 241.053 348.048 240.781 347.808C240.509 347.568 240.373 347.16 240.373 346.584V341.976Z" fill="#222486"/>
<path d="M130.211 433.89C134.245 433.89 137.178 433.157 139.011 431.69C140.845 430.15 141.761 428.28 141.761 426.08C141.761 424.1 141.028 422.487 139.561 421.24C138.168 419.993 136.041 418.93 133.181 418.05L126.911 416.07C123.025 414.823 119.615 413.393 116.681 411.78C113.821 410.167 111.548 408.113 109.861 405.62C108.248 403.127 107.441 399.973 107.441 396.16C107.441 390.073 109.715 385.27 114.261 381.75C118.881 378.157 125.188 376.36 133.181 376.36C137.361 376.36 141.065 376.8 144.291 377.68C147.518 378.487 150.048 379.66 151.881 381.2C153.788 382.74 154.741 384.61 154.741 386.81C154.741 388.277 154.375 389.633 153.641 390.88C152.908 392.053 151.991 393.007 150.891 393.74C149.205 392.567 146.931 391.54 144.071 390.66C141.211 389.78 138.095 389.34 134.721 389.34C131.128 389.34 128.378 389.963 126.471 391.21C124.638 392.457 123.721 394.107 123.721 396.16C123.721 397.7 124.345 398.983 125.591 400.01C126.838 401.037 128.745 401.953 131.311 402.76L137.471 404.63C144.071 406.61 149.131 409.287 152.651 412.66C156.245 415.96 158.041 420.47 158.041 426.19C158.041 432.277 155.658 437.227 150.891 441.04C146.198 444.853 139.451 446.76 130.651 446.76C126.178 446.76 122.181 446.283 118.661 445.33C115.141 444.377 112.355 443.02 110.301 441.26C108.321 439.5 107.331 437.447 107.331 435.1C107.331 433.34 107.845 431.837 108.871 430.59C109.971 429.27 111.181 428.28 112.501 427.62C114.481 429.233 116.975 430.7 119.981 432.02C122.988 433.267 126.398 433.89 130.211 433.89ZM205.66 444.56L221.72 441.37C224.654 442.91 227.44 444.23 230.08 445.33C232.72 446.503 235.25 447.493 237.67 448.3C240.09 449.18 242.437 449.987 244.71 450.72C244.857 451.233 244.93 451.637 244.93 451.93C244.93 452.297 244.93 452.627 244.93 452.92C244.93 456.147 244.05 458.53 242.29 460.07C240.604 461.61 238.33 462.38 235.47 462.38C232.464 462.38 229.127 461.427 225.46 459.52C221.794 457.613 217.907 454.937 213.8 451.49L205.66 444.56ZM241.19 411.45C241.19 419.077 239.724 425.53 236.79 430.81C233.857 436.017 229.824 439.977 224.69 442.69C219.63 445.33 213.874 446.65 207.42 446.65C200.967 446.65 195.174 445.33 190.04 442.69C184.907 439.977 180.874 436.017 177.94 430.81C175.007 425.53 173.54 419.077 173.54 411.45C173.54 403.823 175.044 397.407 178.05 392.2C181.057 386.993 185.09 383.07 190.15 380.43C195.284 377.717 201.04 376.36 207.42 376.36C213.727 376.36 219.447 377.717 224.58 380.43C229.714 383.07 233.747 386.993 236.68 392.2C239.687 397.407 241.19 403.823 241.19 411.45ZM225.02 411.45C225.02 404.19 223.407 398.69 220.18 394.95C217.027 391.137 212.774 389.23 207.42 389.23C202.14 389.23 197.887 391.1 194.66 394.84C191.434 398.58 189.82 404.117 189.82 411.45C189.82 418.857 191.397 424.43 194.55 428.17C197.777 431.91 202.067 433.78 207.42 433.78C212.847 433.78 217.137 431.91 220.29 428.17C223.444 424.43 225.02 418.857 225.02 411.45ZM260.682 399.68H276.522V444.23L269.042 445.22C266.548 445.22 264.532 444.45 262.992 442.91C261.452 441.37 260.682 439.353 260.682 436.86V399.68ZM269.042 445.22V432.35H303.802C304.315 433.01 304.755 433.89 305.122 434.99C305.488 436.09 305.672 437.263 305.672 438.51C305.672 440.71 305.158 442.397 304.132 443.57C303.105 444.67 301.748 445.22 300.062 445.22H269.042ZM276.522 418.6H260.682V378.23C261.415 378.083 262.478 377.9 263.872 377.68C265.265 377.387 266.658 377.24 268.052 377.24C270.985 377.24 273.112 377.79 274.432 378.89C275.825 379.917 276.522 381.86 276.522 384.72V418.6Z" fill="#222486"/>
<defs>
<linearGradient id="paint0_linear_1_66" x1="406.5" y1="349" x2="262.5" y2="644" gradientUnits="userSpaceOnUse">
<stop stop-color="#FA6973"/>
<stop offset="0.375" stop-color="#F84486"/>
<stop offset="1" stop-color="#F84287"/>
</linearGradient>
<radialGradient id="paint1_radial_1_66" cx="0" cy="0" r="1" gradientUnits="userSpaceOnUse" gradientTransform="translate(-151.5 297) rotate(17.3918) scale(633.984 633.984)">
<stop stop-color="#FFEEB5"/>
<stop offset="0.271265" stop-color="#FFE597"/>
<stop offset="0.344852" stop-color="#FDC425"/>
<stop offset="0.486226" stop-color="#FD7A2B"/>
<stop offset="0.578031" stop-color="#FA3B6A"/>
<stop offset="0.72477" stop-color="#D33789"/>
<stop offset="0.811544" stop-color="#A93A9F"/>
<stop offset="0.896806" stop-color="#7B44B8"/>
<stop offset="1" stop-color="#604AC7"/>
</radialGradient>
<linearGradient id="paint2_linear_1_66" x1="294.5" y1="122" x2="353.75" y2="363.5" gradientUnits="userSpaceOnUse">
<stop stop-color="#5462CF"/>
<stop offset="0.366331" stop-color="#4582C8"/>
<stop offset="0.455813" stop-color="#42A1CF"/>
<stop offset="1" stop-color="#41ACD1"/>
</linearGradient>
<linearGradient id="paint3_linear_1_66" x1="40.5" y1="138.5" x2="377" y2="138.5" gradientUnits="userSpaceOnUse">
<stop offset="0.02" stop-color="#FFFEFC"/>
<stop offset="0.15" stop-color="#FFDC9D"/>
<stop offset="0.42" stop-color="#FEB839"/>
<stop offset="1" stop-color="#FD2C9E"/>
</linearGradient>
<linearGradient id="paint4_linear_1_66" x1="26.7413" y1="19.8269" x2="314.583" y2="89.6539" gradientUnits="userSpaceOnUse">
<stop stop-color="#FED62C"/>
<stop offset="0.42" stop-color="#FD7455"/>
<stop offset="0.9" stop-color="#FD378B"/>
<stop offset="1" stop-color="#FD2C9E"/>
</linearGradient>
<linearGradient id="paint5_linear_1_66" x1="82.75" y1="87" x2="82.75" y2="116" gradientUnits="userSpaceOnUse">
<stop stop-color="#FEE6B1"/>
<stop offset="1" stop-color="#FD854F"/>
</linearGradient>
<radialGradient id="paint6_radial_1_66" cx="0" cy="0" r="1" gradientUnits="userSpaceOnUse" gradientTransform="translate(180 487) rotate(30.231) scale(75.316 75.316)">
<stop stop-color="#F8991E"/>
<stop offset="0.0493705" stop-color="#F6A91E"/>
<stop offset="0.272324" stop-color="#FEC41A"/>
<stop offset="0.555048" stop-color="#FAA00E"/>
<stop offset="0.883731" stop-color="#FC7C2A"/>
<stop offset="0.935" stop-color="#FC653A"/>
<stop offset="1" stop-color="#F06153"/>
</radialGradient>
<radialGradient id="paint7_radial_1_66" cx="0" cy="0" r="1" gradientUnits="userSpaceOnUse" gradientTransform="translate(224.926 503.349) rotate(83.6929) scale(3.3544 3.329)">
<stop stop-color="#F4E5CA"/>
<stop offset="1" stop-color="#F2992B"/>
</radialGradient>
<radialGradient id="paint8_radial_1_66" cx="0" cy="0" r="1" gradientUnits="userSpaceOnUse" gradientTransform="translate(189.5 493.5) rotate(20.556) scale(17.088)">
<stop stop-color="#F3E5BE"/>
<stop offset="1" stop-color="#FFD978"/>
</radialGradient>
<radialGradient id="paint9_radial_1_66" cx="0" cy="0" r="1" gradientUnits="userSpaceOnUse" gradientTransform="translate(197 507.5) rotate(42.2737) scale(7.43303 12.3884)">
<stop stop-color="#F9EEA3"/>
<stop offset="1" stop-color="#FDB215"/>
</radialGradient>
<radialGradient id="paint10_radial_1_66" cx="0" cy="0" r="1" gradientUnits="userSpaceOnUse" gradientTransform="translate(235.5 525) rotate(90) scale(3)">
<stop stop-color="#F4E9C2"/>
<stop offset="1" stop-color="#FD7232"/>
</radialGradient>
</defs>
</svg>
